<svg width="256" height="256" viewBox="0 0 256 256" fill="none" xmlns="http://www.w3.org/2000/svg">
<path d="M194.2 95.9299C210.98 113.3 213.07 160.46 185.98 181.42C180.15 175.07 177.54 166.65 172.46 159.84C171.81 158.97 171.72 156.96 172.28 156.02C177.69 147.02 177.23 135.56 185.24 127.48C193.08 119.56 194.63 108.87 194.21 95.9299H194.2Z" fill="white"/>
<path d="M61.68 95.9299C44.9 113.3 42.81 160.46 69.9 181.42C75.73 175.07 78.34 166.65 83.42 159.84C84.07 158.97 84.16 156.96 83.6 156.02C78.19 147.02 78.65 135.56 70.64 127.48C62.8 119.56 61.25 108.87 61.67 95.9299H61.68Z" fill="white"/>
<path d="M110.3 47.5303C112.32 47.5903 113.01 49.1301 113.41 50.8301C115.21 58.6 117.46 66.3002 118.64 74.1602C119.59 80.4699 123.58 80.1099 128.03 80.1299C132.53 80.1499 136.45 80.3795 137.38 74.0996C138.49 66.5697 140.7 59.1997 142.41 51.7598C142.86 49.7998 143.15 47.5694 145.75 47.5693C148.18 47.5693 148.9 49.5595 149.46 51.5693C151.34 58.2893 153.34 64.97 155.16 71.71C158.17 82.8399 159.38 94.4498 166.75 104.22C171.06 109.93 170.73 117.44 170.93 124.43V124.41C171.73 139.62 165.88 152.479 155.97 163.359C151.11 168.699 148.84 174.18 148.96 181.21C149.03 185.51 148.32 189.84 147.75 194.12C146.27 205.29 139.78 210.669 127.96 210.649C116.15 210.629 109.76 205.27 108.21 194.06C108.03 192.74 107.78 191.41 107.79 190.09C107.86 177.78 104.42 167.41 95.8604 157.66C81.6104 141.44 81.3002 112.36 93.2002 97.1699C99.0202 89.7499 97.85 80.0298 100.75 71.5898C103.12 64.69 104.77 57.5402 106.82 50.5303C107.3 48.8803 108.33 47.4704 110.3 47.5303ZM96.8398 123.83C91.0799 142.22 97.18 152.63 115.46 153.95C108.85 143.25 103.14 134.02 96.8398 123.83ZM141.47 153.95C159.75 152.63 165.85 142.22 160.09 123.83C153.79 134.02 148.08 143.25 141.47 153.95Z" fill="white"/>
</svg>
