<svg width="256" height="256" viewBox="0 0 256 256" fill="none" xmlns="http://www.w3.org/2000/svg">
<path d="M69.0701 58.29C91.4999 57.6401 111.38 62.8497 124.7 82.8994C125.16 83.5927 126.197 85.3767 127.81 88.25C129.45 85.75 130.51 84.1296 130.99 83.3896C144.11 63.2297 163.88 57.63 186.36 58.29C196.2 58.5801 199.63 62.6397 200.22 72.6494C201.21 89.3694 198.84 104.94 187.83 118.58C182.78 124.83 175.609 127.56 168.55 132.6L168.54 132.609C172.31 139.349 176.26 145.16 177.71 152.109C179.93 162.729 176.5 166.91 165.76 167.85C158.61 168.48 155.53 168.43 141.77 161.55C141.05 174.23 152.19 188.09 149.33 201.68C149.03 203.1 147.22 203.56 146.23 202.49C135.51 190.92 134.81 175.53 128 161.96C121.41 175.41 120.27 190.61 110.02 202.67C109.08 203.77 107.25 203.38 106.91 201.97C103.6 188.35 114.839 175.15 114.59 162.58C109.769 166.54 98.5902 168.35 91.8503 167.92C79.2604 167.12 75.8802 162.92 78.6501 150.75C80.1501 144.13 84.6204 139.04 87.2205 132.45C79.2505 127.31 71.1803 123.05 65.5603 115.06C55.1604 100.3 54.6804 83.98 56.3904 67.29C57.0604 60.73 62.9501 58.47 69.0701 58.29ZM128 97.3701C123.86 108.21 114.84 115.6 103.82 117.16C110.47 128.38 119.67 132.16 130.56 131.18C139.57 130.37 147.66 126.989 151.76 116.27C140 116.209 131.439 107.87 128.01 97.3799L128 97.3701Z" fill="white"/>
</svg>
