<svg width="256" height="256" viewBox="0 0 256 256" fill="none" xmlns="http://www.w3.org/2000/svg">
<path d="M145.27 60.9102C140.35 66.7 135.96 71.8706 130.53 78.2705C143.33 85.7104 156.93 94.5902 170.6 102.54V79.2803H194.61C194.61 87.0902 194.7 95.9604 194.7 104.61C173 104.61 189.05 104.87 172.46 104.87C172.46 120.23 172.9 136.4 172.9 152.38H194.69V176.561H170.75V154.68C157.53 162.24 143.69 170.02 130.37 177.63C135.5 183.53 139.77 188.42 145.27 194.74C139.9 200.4 134.61 205.97 127.91 213.03C121.95 206.64 116.7 201.01 110.79 194.67C115.77 188.97 120.23 183.87 125.63 177.7C112.38 170.09 98.6298 162.35 85.2598 154.67V176.89H61.21V152.43H83.2402C83.2402 136.87 83.1602 119.54 83.1602 103.57L61.1104 103.49V79.2705H85.3301V100.51C98.42 93.0998 112.02 86.1905 125.49 78.5605C120.46 72.6006 116.11 67.4403 110.34 60.6104H110.36C116.41 54.7304 121.76 49.5202 128.13 43.3203C134.1 49.4502 139.3 54.7903 145.27 60.9102ZM123.729 93.7002C109.01 101.92 109.01 101.57 96.46 108.729V140.79H107.12V114.45C130.47 101.34 107.12 114.45 129.76 101.63L123.729 93.7002Z" fill="#FBFDFD"/>
</svg>
