<svg width="24" height="24" viewBox="0 0 24 24" fill="none" xmlns="http://www.w3.org/2000/svg">
<path d="M1 17V15H3V17H1ZM11 17V15H15V13H11V7H17V9H13V11H15C15.55 11 16.0208 11.1958 16.4125 11.5875C16.8042 11.9792 17 12.45 17 13V15C17 15.55 16.8042 16.0208 16.4125 16.4125C16.0208 16.8042 15.55 17 15 17H11ZM4 17V13C4 12.45 4.19583 11.9792 4.5875 11.5875C4.97917 11.1958 5.45 11 6 11H8V9H4V7H8C8.55 7 9.02083 7.19583 9.4125 7.5875C9.80417 7.97917 10 8.45 10 9V11C10 11.55 9.80417 12.0208 9.4125 12.4125C9.02083 12.8042 8.55 13 8 13H6V15H10V17H4Z" fill="currentColor"/>
<path d="M18 17L19.875 14.5L18 12H19.875L21 13.5L22 12H24L22 14.5L24 17H22L21 15.5L19.875 17H18Z" fill="currentColor"/>
</svg>
