<svg width="24" height="24" viewBox="0 0 24 24" fill="none" xmlns="http://www.w3.org/2000/svg">
<path fill-rule="evenodd" clip-rule="evenodd" d="M2 6C2 5.73478 2.10536 5.48043 2.29289 5.29289C2.48043 5.10536 2.73478 5 3 5H3.5C3.67626 5.00006 3.84938 5.0467 4.00181 5.13521C4.15424 5.22372 4.28057 5.35095 4.368 5.504L7 10.109V6C7 5.73478 7.10536 5.48043 7.29289 5.29289C7.48043 5.10536 7.73478 5 8 5C8.26522 5 8.51957 5.10536 8.70711 5.29289C8.89464 5.48043 9 5.73478 9 6V13C9 13.2652 8.89464 13.5196 8.70711 13.7071C8.51957 13.8946 8.26522 14 8 14H7.5C7.32374 13.9999 7.15062 13.9533 6.99819 13.8648C6.84576 13.7763 6.71943 13.6491 6.632 13.496L4 8.891V13C4 13.2652 3.89464 13.5196 3.70711 13.7071C3.51957 13.8946 3.26522 14 3 14C2.73478 14 2.48043 13.8946 2.29289 13.7071C2.10536 13.5196 2 13.2652 2 13V6ZM14.947 7.106C15.184 7.22465 15.3642 7.43254 15.448 7.68399C15.5319 7.93544 15.5124 8.20987 15.394 8.447L11.394 16.447C11.3378 16.5686 11.2578 16.6776 11.1587 16.7677C11.0596 16.8578 10.9434 16.927 10.817 16.9713C10.6906 17.0156 10.5567 17.0341 10.423 17.0256C10.2893 17.0172 10.1588 16.982 10.039 16.9221C9.91918 16.8622 9.81265 16.7788 9.72569 16.677C9.63872 16.5751 9.5731 16.4569 9.53272 16.3292C9.49234 16.2015 9.47802 16.067 9.49061 15.9337C9.50319 15.8003 9.54243 15.6709 9.606 15.553L13.606 7.553C13.7246 7.31599 13.9325 7.13577 14.184 7.05196C14.4354 6.96814 14.7099 6.98758 14.947 7.106ZM16.554 10.676C16.6215 10.4788 16.749 10.3076 16.9187 10.1864C17.0883 10.0652 17.2915 10 17.5 10H18.5C18.7085 10 18.9117 10.0652 19.0813 10.1864C19.251 10.3076 19.3785 10.4788 19.446 10.676L21.153 15.655L21.931 17.635C22.0266 17.8817 22.0206 18.1562 21.9143 18.3985C21.808 18.6407 21.61 18.831 21.3636 18.9275C21.1173 19.0241 20.8428 19.0191 20.6001 18.9137C20.3575 18.8082 20.1665 18.611 20.069 18.365L19.533 17H16.467L15.931 18.366C15.8339 18.6129 15.6427 18.8112 15.3995 18.9171C15.1563 19.0231 14.8809 19.0281 14.634 18.931C14.3871 18.8339 14.1888 18.6427 14.0829 18.3995C13.9769 18.1563 13.9719 17.8809 14.069 17.634L14.847 15.654L16.554 10.676ZM17.186 15H18.814L18 12.625L17.186 15Z" fill="currentColor"/>
</svg>
