<svg width="24" height="24" viewBox="0 0 24 24" fill="none" xmlns="http://www.w3.org/2000/svg">
<path d="M7.1 14.8571H9.9V9.14286H7.1V14.8571ZM7.1 17C6.51667 17 6.02083 16.7917 5.6125 16.375C5.20417 15.9583 5 15.4524 5 14.8571V9.14286C5 8.54762 5.20417 8.04167 5.6125 7.625C6.02083 7.20833 6.51667 7 7.1 7H9.9C10.4833 7 10.9792 7.20833 11.3875 7.625C11.7958 8.04167 12 8.54762 12 9.14286V14.8571C12 15.4524 11.7958 15.9583 11.3875 16.375C10.9792 16.7917 10.4833 17 9.9 17H7.1Z" fill="currentColor"/>
<path d="M13 17L14.875 14.5L13 12H14.875L16 13.5L17 12H19L17 14.5L19 17H17L16 15.5L14.875 17H13Z" fill="currentColor"/>
</svg>
