<svg width="24" height="24" viewBox="0 0 24 24" fill="none" xmlns="http://www.w3.org/2000/svg">
<path d="M6 17V13C6 12.45 6.19583 11.9792 6.5875 11.5875C6.97917 11.1958 7.45 11 8 11H10V9H6V7H10C10.55 7 11.0208 7.19583 11.4125 7.5875C11.8042 7.97917 12 8.45 12 9V11C12 11.55 11.8042 12.0208 11.4125 12.4125C11.0208 12.8042 10.55 13 10 13H8V15H12V17H6Z" fill="currentColor"/>
<path d="M13 17L14.875 14.5L13 12H14.875L16 13.5L17 12H19L17 14.5L19 17H17L16 15.5L14.875 17H13Z" fill="currentColor"/>
</svg>
