<svg width="256" height="256" viewBox="0 0 256 256" fill="none" xmlns="http://www.w3.org/2000/svg">
<path d="M96.05 73.8198C106.25 65.4199 117.93 61.4897 131.13 62.1997C161.22 63.7998 179.969 88.5593 181.329 129.178C198.823 126.932 208.261 133.493 210.95 149.1C211.3 151.12 211.84 153.19 210 154.61C208.18 156.01 206.03 155.51 204.51 154.08C201.08 150.87 198.359 151.23 195.28 154.73C183.85 167.76 183.79 167.7 169.67 158.4C162.44 167.7 156.27 177.93 147.51 186.16C132.27 200.48 123.58 200.52 108.37 186.04C99.8704 177.94 93.52 168.23 86.51 158.44C85.17 159.05 83.8797 159.36 82.9397 160.11C71.8599 169.06 70.43 168.97 62.2102 157.09C59.2002 152.75 56.5996 149.39 51.3196 154.19C49.7696 155.6 47.6195 155.98 45.8596 154.46C44.0896 152.93 44.7501 150.9 45.1301 148.9C48.0401 133.37 56.73 127.34 75.01 128.95C73.4501 107.34 78.6601 88.1598 96.05 73.8198ZM155.09 91.02C150.57 88.92 147.54 92.2705 144.95 95.2905C140.211 100.8 138.1 107.38 138.52 114.62C138.7 117.7 139.9 120.6 143.23 121.56C146.03 122.36 148.25 120.98 150.35 119.06C155.81 114.07 158.51 107.91 158.77 100.6L158.781 100.61C158.891 96.8799 158.98 92.83 155.09 91.02ZM110.76 94.9604C108.34 92.1904 105.5 89.2603 101.4 90.8003C97.3 92.3304 97.1495 96.2904 97.1995 100.05V100.06C97.3595 107.75 100.05 114.33 106.02 119.31C111.37 123.77 116.5 122.02 117.35 115.16C118.29 107.57 115.79 100.72 110.76 94.9604Z" fill="white"/>
</svg>
