<svg width="256" height="256" viewBox="0 0 256 256" fill="none" xmlns="http://www.w3.org/2000/svg">
<path d="M126.23 184.84C123.71 184.07 119.83 183.18 116.17 181.72C99.24 174.95 82.37 168.04 65.49 161.13C63.97 160.51 62.55 159.59 61.12 158.76C53.7 154.46 53.42 149.55 60.92 145.9C81.5 135.89 102.86 127.78 124.53 120.47C127.19 119.57 129.68 119.87 132.3 120.76C153.33 127.9 174.03 135.84 194.08 145.41C194.98 145.84 195.99 146.09 196.79 146.64C201.6 149.99 201.77 154.76 196.71 157.76C192.17 160.45 187.19 162.42 182.31 164.49C166.15 171.35 149.97 178.19 133.31 183.79C131.4 184.43 129.59 185.16 126.22 184.83L126.23 184.84Z" fill="white"/>
<path d="M127.56 209.93C123.36 209.93 111.44 205.77 103.73 202.92C89.1101 197.51 74.7001 191.44 60.5001 184.96C59.8301 184.66 56.9401 182.97 55.3101 182.02C50.2701 179.12 49.9001 178.28 52.7401 172.77C54.6401 169.09 55.4401 169.46 60.4901 171.78C76.5001 179.1 92.8701 185.45 109.2 191.93C125.53 198.41 130.29 198.8 146.72 191.97C162.63 185.36 178.4 178.43 194.52 172.24C199.39 170.37 201.4 168.38 203.66 173.57C205.47 177.72 207.49 179.1 199.9 182.41C183.16 189.72 166.83 197.86 149.54 203.77C142.34 206.23 132.31 209.92 127.56 209.92V209.93Z" fill="white"/>
<path d="M93.59 71.1899C93.59 80.6832 88.89 85.4265 79.49 85.4199C78.16 85.4199 76.84 85.4399 75.51 85.3999C66.73 85.1199 66.25 84.6199 65.99 75.4299C65.65 63.4032 71.5433 57.5265 83.67 57.7999C93.11 58.0199 93.43 58.3399 93.59 68.1999C93.61 69.1899 93.59 70.1899 93.59 71.1799V71.1899Z" fill="white"/>
<path d="M185.3 87.7201C185.16 97.8901 184.96 98.0601 173.31 97.9701C163.31 97.8901 163.07 97.6001 163.17 85.9101C163.26 75.7301 163.52 75.5001 175.12 75.6701C185.26 75.8201 185.46 76.0501 185.3 87.7201Z" fill="white"/>
<path d="M119.38 99.54C119.42 107.63 118.34 108.71 110.25 108.72C102.06 108.72 100.79 107.51 100.83 99.73C100.87 92.13 101.82 91.32 110.61 91.37C118.77 91.42 119.35 91.96 119.39 99.53L119.38 99.54Z" fill="white"/>
</svg>
