<svg width="256" height="256" viewBox="0 0 256 256" fill="none" xmlns="http://www.w3.org/2000/svg">
<path d="M67.4105 66.9897C76.0104 59.1301 86.0602 58.4303 96.14 63.4302C100.25 65.4702 103.79 65.1901 107.62 64.1001C121.07 60.2602 134.51 60.2403 147.93 64.0103C152.94 65.4202 157.22 64.9099 162.24 62.77C172.03 58.6101 181.83 59.4199 189.98 67.4097C198.32 75.5796 199.9 85.2299 195.46 95.7397C193.76 99.7597 193.6 103.34 195.17 107.26C208.62 140.78 193.7 178.901 161.82 196C151.35 201.62 140.1 204.21 129.77 204.08L129.76 204.09C77.5901 204.22 43.1403 155.08 60.7103 107.66C62.2902 103.4 62.7701 99.4795 61.0101 95.1196C56.6603 84.3598 58.9006 74.7697 67.4105 66.9897ZM127.52 82.0698C99.2101 81.9699 75.94 106.9 77.2797 133.16C77.4097 161.09 100.54 183.76 128.48 183.36C159.59 182.92 179.55 156.25 178.87 132.2C178.069 104.09 155.88 82.1598 127.52 82.0698Z" fill="white"/>
</svg>
