<svg width="256" height="256" viewBox="0 0 256 256" fill="none" xmlns="http://www.w3.org/2000/svg">
<path d="M108.3 63.7803C119.79 46.2003 136.13 45.8404 147.25 63.2402C154.34 74.3302 163.98 78.3105 176.38 79.2705C190.28 80.3506 197.55 88.0202 197.44 99.75L197.45 99.7402C197.74 104.99 195.44 109.49 193.06 113.87C188.06 123.08 188.14 132.06 192.69 141.53C202.92 162.83 196.31 174.941 173.1 177.101C161.94 178.141 153.88 182.75 147.69 192.21C135.98 210.11 119.98 209.98 108.13 191.96C102.15 182.87 94.3696 178.23 83.5796 177.17C59.5099 174.81 53.04 163.18 63.4399 141.25C67.7599 132.13 67.6603 123.55 63.3003 114.46C53.0903 93.15 59.6801 81.0496 82.8901 78.8896C94.04 77.8496 102.12 73.2402 108.3 63.7803ZM128.05 74.79C116.62 91.39 101.55 99.42 81.6499 101.75C91.2499 119.79 89.4895 136.88 82.4995 154.75C102.2 156.35 116.65 164.891 128.2 181.561C139.12 164.621 153.79 156.48 174.57 154.66V154.65C164.72 136.191 166.55 119.11 173.49 101.23C153.79 99.6304 139.35 91.0899 128.05 74.79Z" fill="white"/>
</svg>
