<svg width="256" height="256" viewBox="0 0 256 256" fill="none" xmlns="http://www.w3.org/2000/svg">
<path d="M199.67 98.23L180.05 78.61L183.6 101.99C183.63 102.18 183.4 102.3 183.26 102.16L154.08 72.98C153.94 72.84 154.06 72.61 154.25 72.64L177.63 76.19L157.76 56.32C157.76 56.32 157.67 56.26 157.62 56.26H98.36C98.31 56.26 98.26 56.28 98.22 56.32L56.32 98.22C56.32 98.22 56.26 98.31 56.26 98.36V157.62C56.26 157.67 56.28 157.72 56.32 157.76L75.85 177.29L66.14 132.24C66.1 132.05 66.34 131.92 66.48 132.06L124.25 189.83C124.39 189.97 124.26 190.21 124.07 190.17L79.02 180.46L98.23 199.67C98.23 199.67 98.32 199.73 98.37 199.73H157.63C157.68 199.73 157.73 199.71 157.77 199.67L177.01 180.43L131.87 190.18C131.68 190.22 131.55 189.98 131.69 189.84L189.45 132.08C189.59 131.94 189.83 132.07 189.79 132.26L180.04 177.4L199.68 157.76C199.68 157.76 199.74 157.67 199.74 157.62V98.36C199.74 98.31 199.72 98.26 199.68 98.22L199.67 98.23Z" fill="white"/>
</svg>
