<svg width="256" height="256" viewBox="0 0 256 256" fill="none" xmlns="http://www.w3.org/2000/svg">
<path d="M143.47 191.59C138.25 195.57 133.41 199.27 127.7 203.62C107.99 189.25 88.86 175.3 66.51 159.01C88.68 152.6 107.4 147.19 127.63 141.35C133.09 158.67 138.11 174.57 143.48 191.59H143.47Z" fill="white"/>
<path d="M175.65 73.5703C156.01 80.1803 137.38 86.4498 117.24 93.2197C119.84 106.63 122.02 117.88 124.5 130.65C101.77 137.14 79.8202 143.4 54.8203 150.53C64.6603 120.18 73.4802 93.0095 82.4102 65.4795H171.811C172.761 67.4895 173.94 69.9703 175.65 73.5703ZM97.0498 73.1699C92.8305 73.17 89.4103 76.5903 89.4102 80.8096C89.4102 85.029 92.8304 88.4501 97.0498 88.4502C101.269 88.4502 104.689 85.029 104.689 80.8096C104.689 76.5903 101.269 73.1699 97.0498 73.1699Z" fill="white"/>
<path d="M200.8 150.53C185.89 161.3 172.31 171.11 156 182.89C148.25 155.37 141.18 130.26 133.62 103.39C150.12 98.1297 164.4 93.5699 180.42 88.46C187.38 109.67 193.92 129.58 200.8 150.53ZM161.67 106.54C155.921 106.54 151.26 111.201 151.26 116.95C151.26 122.699 155.921 127.36 161.67 127.36C167.419 127.36 172.08 122.699 172.08 116.95C172.08 111.201 167.419 106.54 161.67 106.54Z" fill="white"/>
</svg>
