<svg width="256" height="256" viewBox="0 0 256 256" fill="none" xmlns="http://www.w3.org/2000/svg">
<path d="M128.16 50.51C130.99 50.63 132 52.9204 133.03 54.9504C133.77 56.4003 134.12 58.0701 134.44 59.6799C138.9 81.7998 148.35 101.74 160.48 120.61C168.25 132.69 174.94 145.19 174.61 160.36C174.04 186.84 154.79 206.15 128.34 206.25L128.35 206.24C94.1101 206.37 72.2103 173.85 84.5503 141.46C88.7303 130.48 95.3301 120.86 101.35 110.97C110.78 95.47 117.06 78.86 121.26 61.3401C121.8 59.0901 122.2 56.7599 123.14 54.6799C124.07 52.6101 125.27 50.3902 128.16 50.51ZM161.44 168.92C159.41 166.62 157.14 168.6 155.081 169.35C137.261 175.79 119.44 175.81 101.56 169.62C99.2601 168.83 96.4098 166.33 94.5298 169.54C93.1102 171.96 94.8898 174.78 96.2397 176.98C103.59 188.98 115.36 192.46 129.16 193.51L129.17 193.5C141.66 191.8 154 188.7 160.52 175.31C161.49 173.33 163.36 171.1 161.44 168.92Z" fill="white"/>
</svg>
